HIERARCHY
ROOT Pelvis
{
	OFFSET 0.000000 0.000000 0.000000
	CHANNELS 6 Xposition Yposition Zposition Xrotation Yrotation Zrotation
	JOINT LeftUpLeg_virtual
	{
		OFFSET 0.000000 0.000000 0.000000
		CHANNELS 3 Xrotation Yrotation Zrotation
		JOINT LeftUpLeg
		{
			OFFSET 18.735201 -5.666702 -4.541200
			CHANNELS 3 Xrotation Yrotation Zrotation
			JOINT LeftLeg
			{
				OFFSET -0.021200 -31.938179 0.493100
				CHANNELS 3 Xrotation Yrotation Zrotation
				JOINT LeftFoot
				{
					OFFSET 0.021200 -31.938179 -4.336299
					CHANNELS 3 Xrotation Yrotation Zrotation
					JOINT LeftToeBase
					{
						OFFSET 0.943001 -26.722000 15.023500
						CHANNELS 3 Xrotation Yrotation Zrotation
						End Site
						{
							OFFSET 0 0 0
						}
					}
				}
			}
		}
	}
	JOINT RightUpLeg_virtual
	{
		OFFSET 0.000000 0.000000 0.000000
		CHANNELS 3 Xrotation Yrotation Zrotation
		JOINT RightUpLeg
		{
			OFFSET -18.735201 -5.666702 -4.541200
			CHANNELS 3 Xrotation Yrotation Zrotation
			JOINT RightLeg
			{
				OFFSET 0.018946 -31.938133 0.493100
				CHANNELS 3 Xrotation Yrotation Zrotation
				JOINT RightFoot
				{
					OFFSET -0.018946 -31.938126 -4.336299
					CHANNELS 3 Xrotation Yrotation Zrotation
					JOINT RightToeBase
					{
						OFFSET -0.943001 -26.722004 15.023500
						CHANNELS 3 Xrotation Yrotation Zrotation
						End Site
						{
							OFFSET 0 0 0
						}
					}
				}
			}
		}
	}
	JOINT Hips_virtual
	{
		OFFSET 0.000000 0.000000 0.000000
		CHANNELS 3 Xrotation Yrotation Zrotation
		JOINT Hips
		{
			OFFSET -0.000000 -0.000000 -0.000000
			CHANNELS 3 Xrotation Yrotation Zrotation
			JOINT Spine
			{
				OFFSET 0.000000 10.199997 -0.299500
				CHANNELS 3 Xrotation Yrotation Zrotation
				JOINT Spine1
				{
					OFFSET 0.000000 11.900002 -1.516600
					CHANNELS 3 Xrotation Yrotation Zrotation
					JOINT Spine2
					{
						OFFSET 0.000000 13.600006 -2.842500
						CHANNELS 3 Xrotation Yrotation Zrotation
						JOINT Neck_virtual
						{
							OFFSET 0.000000 0.000000 0.000000
							CHANNELS 3 Xrotation Yrotation Zrotation
							JOINT Neck
							{
								OFFSET 0.000000 9.624100 -2.890100
								CHANNELS 3 Xrotation Yrotation Zrotation
								JOINT Head
								{
									OFFSET 0.000000 14.068802 -1.351900
									CHANNELS 3 Xrotation Yrotation Zrotation
									End Site
									{
										OFFSET 0 0 0
									}
								}
							}
						}
						JOINT LeftShoulder_virtual
						{
							OFFSET 0.000000 0.000000 0.000000
							CHANNELS 3 Xrotation Yrotation Zrotation
							JOINT LeftShoulder
							{
								OFFSET 15.263000 10.923401 -0.547700
								CHANNELS 3 Xrotation Yrotation Zrotation
								JOINT LeftArm
								{
									OFFSET 25.438599 -2.830597 -13.032500
									CHANNELS 3 Xrotation Yrotation Zrotation
									JOINT LeftForeArm
									{
										OFFSET 29.960503 0.000000 0.000000
										CHANNELS 3 Xrotation Yrotation Zrotation
										JOINT LeftHand
										{
											OFFSET 27.849251 0.000000 0.000000
											CHANNELS 3 Xrotation Yrotation Zrotation
											End Site
											{
												OFFSET 0 0 0
											}
										}
									}
								}
							}
						}
						JOINT RightShoulder_virtual
						{
							OFFSET 0.000000 0.000000 0.000000
							CHANNELS 3 Xrotation Yrotation Zrotation
							JOINT RightShoulder
							{
								OFFSET -15.263000 10.923401 -0.547700
								CHANNELS 3 Xrotation Yrotation Zrotation
								JOINT RightArm
								{
									OFFSET -25.438599 -2.830597 -13.032500
									CHANNELS 3 Xrotation Yrotation Zrotation
									JOINT RightForeArm
									{
										OFFSET -29.960503 0.000000 0.000000
										CHANNELS 3 Xrotation Yrotation Zrotation
										JOINT RightHand
										{
											OFFSET -27.849251 0.000000 0.000000
											CHANNELS 3 Xrotation Yrotation Zrotation
											End Site
											{
												OFFSET 0 0 0
											}
										}
									}
								}
							}
						}
					}
				}
			}
		}
	}
}
MOTION
Frames: 11
Frame Time: 0.03333333
-10.627998 129.542923 -4.769001 0.000000 0.000000 0.000000 9.593731 -12.709216 -1.770771 -150.954120 -38.973073 23.468598 117.337869 -22.850939 -3.327241 41.671087 -23.857958 -13.232318 0.000000 0.000000 0.000000 9.593731 -12.709216 -1.770771 -73.064999 54.187531 -69.386034 129.543895 39.386040 5.269842 0.372285 13.437992 55.729508 0.000000 0.000000 0.000000 9.593731 -12.709216 -1.770771 0.000001 0.000000 0.000000 33.188716 7.158455 2.258581 7.005157 1.340332 1.044122 0.000000 0.000000 0.000000 7.005147 1.323487 1.067153 3.049293 1.398859 0.763501 0.000000 0.000000 0.000000 7.005147 1.323487 1.067153 0.375794 -3.663681 3.525975 -38.687827 19.601996 21.846155 0.000003 -0.833154 0.000010 0.000000 0.000000 0.000000 7.005147 1.323487 1.067153 -3.703289 -7.648393 -32.005935 -45.797009 15.445747 -5.645460 0.000000 11.835322 0.000001 0.000000 0.000000 0.000000 
-10.247944 127.870468 -4.244671 0.000000 0.000000 0.000000 10.346147 -11.684752 -0.421565 -152.354418 -33.106009 26.395848 117.777801 -19.065638 -6.115706 45.795281 -26.817817 -2.594479 0.000000 0.000000 0.000000 10.346147 -11.684752 -0.421565 -66.430912 50.808305 -72.910446 127.175281 38.836585 7.327615 -2.112105 11.800531 53.585593 0.000000 0.000000 0.000000 10.346147 -11.684752 -0.421565 0.000000 0.000000 0.000000 32.883871 6.536559 1.015817 6.928085 1.411406 0.809339 0.000000 0.000000 0.000000 6.927401 1.400736 0.834282 3.267576 1.309226 0.864657 0.000000 0.000000 0.000000 6.927401 1.400736 0.834282 0.260216 -3.373977 3.577372 -40.196049 20.677966 26.508060 -0.000005 -2.492638 0.000003 0.000000 0.000000 0.000000 6.927401 1.400736 0.834282 -2.438248 -4.287072 -32.305552 -40.704038 7.760224 -13.687632 0.000002 15.033129 0.000001 0.000000 0.000000 0.000000 
-9.652424 124.717453 -3.761646 0.000000 0.000000 0.000000 10.010312 -11.881380 -0.231170 -149.484414 -27.807191 27.562363 118.144678 -16.179564 -7.072207 47.314783 -23.155600 3.953308 0.000000 0.000000 0.000000 10.010312 -11.881380 -0.231170 -66.047123 46.828699 -66.941181 125.706763 36.406814 7.464794 -7.029561 9.075014 51.277399 0.000000 0.000000 0.000000 10.010312 -11.881380 -0.231170 0.000000 0.000000 0.000000 31.101382 6.603200 0.269815 6.538970 1.568813 0.665330 0.000000 0.000000 0.000000 6.537237 1.564634 0.691662 3.142612 1.297385 0.834946 0.000000 0.000000 0.000000 6.537237 1.564634 0.691662 0.039206 -2.385780 4.168917 -38.968333 20.585632 29.044406 -0.000001 -3.374195 -0.000005 0.000000 0.000000 0.000000 6.537237 1.564634 0.691662 -1.195180 -0.396597 -31.763337 -37.135141 -0.211832 -19.628956 0.000003 19.145500 -0.000011 0.000000 0.000000 0.000000 
-8.834232 120.458054 -3.932842 0.000000 0.000000 0.000000 8.593074 -12.106813 -0.881512 -144.863422 -22.846476 26.565649 118.850346 -13.678481 -5.708807 43.276120 -19.867917 5.529167 0.000000 0.000000 0.000000 8.593074 -12.106813 -0.881512 -65.934801 41.881173 -57.604832 125.583984 33.328547 5.871959 -14.212229 3.797055 48.723527 0.000000 0.000000 0.000000 8.593074 -12.106813 -0.881512 0.000001 0.000000 0.000000 28.554994 7.334348 0.276668 5.995017 1.728299 0.680313 0.000000 0.000000 0.000000 5.991696 1.728369 0.706515 3.023569 1.331850 0.814772 0.000000 0.000000 0.000000 5.991696 1.728369 0.706515 -0.058448 -2.072649 4.852713 -37.181863 21.291349 30.847491 0.000003 -3.951672 0.000010 0.000000 0.000000 0.000000 5.991696 1.728369 0.706515 -0.388917 2.653076 -30.259241 -35.260083 -5.616369 -21.941769 -0.000003 21.810553 0.000012 0.000000 0.000000 0.000000 
-8.351362 115.715157 -4.893963 0.000000 0.000000 0.000000 7.782073 -12.023916 -1.322189 -136.789100 -19.360241 27.117711 118.661778 -12.092737 -4.693747 33.015550 -20.170691 5.578545 0.000000 0.000000 0.000000 7.782073 -12.023916 -1.322189 -66.290483 33.929108 -46.364260 123.599677 27.118952 3.718785 -18.915574 0.097933 46.134666 0.000000 0.000000 0.000000 7.782073 -12.023916 -1.322189 0.000000 0.000000 0.000000 25.370343 7.866685 0.581190 5.300980 1.785471 0.700158 0.000000 0.000000 0.000000 5.295677 1.790812 0.722058 3.033180 1.341064 0.932557 0.000000 0.000000 0.000000 5.295677 1.790812 0.722058 0.037774 -2.601990 4.679294 -37.240261 23.924098 31.952800 -0.000001 -4.755649 0.000003 0.000000 0.000000 0.000000 5.295677 1.790812 0.722058 0.391408 5.297111 -26.175517 -34.806699 -9.994413 -22.418692 -0.000004 23.779763 0.000012 0.000000 0.000000 0.000000 
-8.374500 110.455078 -4.995564 0.000000 0.000000 0.000000 7.154358 -12.207632 -1.844065 -119.832172 -15.606547 29.521901 112.875829 -11.982765 -4.903952 25.630155 -11.533865 4.953563 0.000000 0.000000 0.000000 7.154358 -12.207632 -1.844065 -68.909874 24.768371 -33.919177 116.189277 18.007346 2.744636 -10.673131 3.835705 37.365137 0.000000 0.000000 0.000000 7.154358 -12.207632 -1.844065 0.000001 0.000000 0.000000 22.330313 7.886720 0.593394 4.559985 1.724171 0.616618 0.000000 0.000000 0.000000 4.554690 1.732794 0.628859 2.940537 1.380150 0.900466 0.000000 0.000000 0.000000 4.554690 1.732794 0.628859 -0.019940 -1.684836 3.901626 -36.168338 29.133243 27.600128 -0.000000 -6.187305 0.000015 0.000000 0.000000 0.000000 4.554690 1.732794 0.628859 1.105544 8.057194 -19.527009 -35.743107 -17.150351 -22.459796 -0.000005 26.315742 0.000004 0.000000 0.000000 0.000000 
-8.082516 104.430893 -3.957695 0.000000 0.000000 0.000000 5.269499 -11.391187 -2.215068 -98.059865 -10.140517 29.605274 101.282088 -11.008709 -5.772001 21.222105 -0.180166 0.655824 0.000000 0.000000 0.000000 5.269499 -11.391187 -2.215068 -64.456222 16.264489 -25.776989 105.040182 12.425075 3.348588 -2.633110 6.992562 24.069619 0.000000 0.000000 0.000000 5.269499 -11.391187 -2.215068 0.000000 0.000000 0.000000 20.542074 7.281420 0.376934 3.974470 1.532902 0.459531 0.000000 0.000000 0.000000 3.972169 1.538983 0.459185 2.600705 1.514685 0.504059 0.000000 0.000000 0.000000 3.972169 1.538983 0.459185 -0.353146 1.896862 3.551195 -28.495978 35.091197 12.455931 0.000001 -7.692647 0.000000 0.000000 0.000000 0.000000 3.972169 1.538983 0.459185 1.183198 9.231957 -13.874699 -35.358646 -27.932900 -17.884956 -0.000001 27.677573 0.000001 0.000000 0.000000 0.000000 
-7.924253 97.739662 -3.001118 0.000000 0.000000 0.000000 2.356323 -8.362840 -2.027883 -77.497935 -5.431723 24.768740 86.461288 -3.466317 -5.435687 19.290510 -0.259321 -4.196682 0.000000 0.000000 0.000000 2.356323 -8.362840 -2.027883 -48.926858 10.759874 -24.224615 91.219328 12.258918 3.942970 -9.395918 5.380744 26.789945 0.000000 0.000000 0.000000 2.356323 -8.362840 -2.027883 0.000000 0.000000 0.000000 20.377197 5.690730 -0.217131 3.707971 1.207544 0.243988 0.000000 0.000000 0.000000 3.709107 1.206747 0.235354 2.203153 1.627875 0.232738 0.000000 0.000000 0.000000 3.709107 1.206747 0.235354 -0.695154 5.678860 3.595655 -16.660819 37.267588 -9.966206 -0.000001 -8.241682 0.000001 0.000000 0.000000 0.000000 3.709107 1.206747 0.235354 0.690634 6.413815 -12.180251 -26.362100 -37.823026 -0.465238 0.000000 24.677106 0.000000 0.000000 0.000000 0.000000 
-8.107201 89.843132 -2.235992 0.000000 0.000000 0.000000 -0.994255 -4.431320 -2.106857 -60.678861 -4.721975 18.098895 72.840122 0.693305 -2.101893 20.822868 -1.533797 -12.976769 0.000000 0.000000 0.000000 -0.994255 -4.431320 -2.106857 -31.245814 5.410105 -22.939411 73.903822 12.905369 3.475622 -15.372456 -2.237278 36.505281 0.000000 0.000000 0.000000 -0.994255 -4.431320 -2.106857 0.000000 0.000000 0.000000 21.593431 3.287499 -1.772888 3.811009 0.801032 -0.030570 0.000000 0.000000 0.000000 3.813246 0.794068 -0.039278 1.826356 1.590526 0.668762 0.000000 0.000000 0.000000 3.813246 0.794068 -0.039278 -0.764564 7.220170 3.123857 -8.464531 35.515556 -29.038293 0.000002 -8.319867 -0.000002 0.000000 0.000000 0.000000 3.813246 0.794068 -0.039278 -0.061248 1.620195 -12.901610 -9.478369 -39.914000 27.580208 0.000002 18.051512 -0.000002 0.000000 0.000000 0.000000 
-7.564751 83.750664 -1.478828 0.000000 0.000000 0.000000 -4.141637 -1.135787 -2.412185 -50.402684 -3.437984 11.352813 74.170349 2.081956 2.612245 2.708557 0.795922 -15.109768 0.000000 0.000000 0.000000 -4.141637 -1.135787 -2.412185 -24.819912 -0.155671 -14.761813 68.803105 8.847989 2.040259 -21.802561 -1.851122 12.418150 0.000000 0.000000 0.000000 -4.141637 -1.135787 -2.412185 0.000000 0.000000 0.000000 23.821115 0.635515 -3.445077 4.243474 0.379001 -0.316181 0.000000 0.000000 0.000000 4.244755 0.367294 -0.320070 1.137700 1.484771 1.543145 0.000000 0.000000 0.000000 4.244755 0.367294 -0.320070 -0.703838 7.298369 1.863964 -5.519281 31.397826 -40.995495 0.000004 -10.325834 -0.000008 0.000000 0.000000 0.000000 4.244755 0.367294 -0.320070 -0.238085 -0.788332 -12.944204 2.885476 -33.686008 49.954593 0.000005 13.869304 0.000003 0.000000 0.000000 0.000000 
-7.989528 77.586403 -1.667805 0.000000 0.000000 0.000000 -5.635345 1.396266 -2.453353 -52.298898 -3.115360 9.623790 87.554221 7.000042 3.930330 -19.429277 -1.886560 -11.844240 0.000000 0.000000 0.000000 -5.635345 1.396266 -2.453353 -17.737535 -7.755846 -7.378869 77.409601 -1.391531 2.844440 -53.926048 7.522607 -13.062352 0.000000 0.000000 0.000000 -5.635345 1.396266 -2.453353 0.000000 0.000000 0.000000 26.829842 -1.756128 -5.008371 4.926209 0.043900 -0.548383 0.000000 0.000000 0.000000 4.926081 0.026596 -0.547959 -0.143187 1.507508 1.990794 0.000000 0.000000 0.000000 4.926081 0.026596 -0.547959 -0.691417 7.374324 0.405918 -6.729361 24.037471 -48.384766 0.000007 -16.121333 -0.000008 0.000000 0.000000 0.000000 4.926081 0.026596 -0.547959 0.209020 -0.570371 -11.420798 5.535135 -23.932802 60.205310 -0.000002 17.303109 -0.000007 0.000000 0.000000 0.000000 
